<?xml version="1.0" standalone="no"?>
<!DOCTYPE svg PUBLIC "-//W3C//DTD SVG 20010904//EN"
 "http://www.w3.org/TR/2001/REC-SVG-20010904/DTD/svg10.dtd">
<svg version="1.0" xmlns="http://www.w3.org/2000/svg"
 width="1416.000000pt" height="664.000000pt" viewBox="0 0 1416.000000 664.000000"
 preserveAspectRatio="xMidYMid meet">

<g transform="translate(0.000000,664.000000) scale(0.100000,-0.100000)"
fill="#000000" stroke="none">
<path d="M2155 4878 c-3 -7 -4 -722 -3 -1588 l3 -1575 1220 0 1220 0 3 162 c1
90 1 164 0 165 -2 2 -430 5 -953 8 l-950 5 -3 546 -2 546 37 7 c21 3 397 6
836 6 l797 0 0 165 0 165 -804 0 c-442 0 -818 3 -835 6 l-31 7 2 521 3 521
889 3 c637 1 893 5 903 13 10 9 13 48 13 164 0 130 -2 154 -16 159 -9 3 -535
6 -1170 6 -915 0 -1156 -3 -1159 -12z"/>
<path d="M5462 4882 c-10 -7 -12 -331 -10 -1588 l3 -1579 755 -3 c769 -3 918
3 1085 39 473 103 786 292 928 559 52 100 68 172 68 321 0 182 -47 301 -169
430 -118 126 -295 221 -522 283 -83 22 -217 46 -261 46 -21 0 -39 4 -39 8 0
10 65 42 84 42 26 0 230 87 297 126 82 48 138 93 207 164 51 52 132 176 132
200 0 6 7 25 17 43 21 42 34 182 24 272 -10 90 -63 201 -133 279 -107 120
-304 230 -518 289 -143 40 -226 54 -400 67 -144 11 -1531 13 -1548 2z m1419
-341 c52 -5 136 -19 185 -31 218 -53 340 -134 400 -264 24 -52 27 -70 26 -167
0 -96 -3 -114 -27 -166 -36 -76 -93 -146 -158 -195 -53 -41 -178 -104 -232
-118 -16 -4 -57 -15 -90 -24 -118 -33 -284 -47 -622 -53 -259 -4 -336 -3 -348
7 -13 11 -15 79 -15 510 0 273 3 500 7 503 9 10 761 8 874 -2z m164 -1376
c414 -66 638 -216 675 -452 23 -143 -13 -282 -99 -382 -95 -112 -215 -176
-451 -241 -105 -29 -218 -35 -685 -35 l-480 0 -3 554 c-2 428 1 557 10 569 19
23 876 12 1033 -13z"/>
<path d="M10455 4858 c-8 -18 -19 -40 -24 -48 -6 -8 -37 -64 -71 -125 -34 -60
-65 -117 -70 -125 -5 -8 -16 -28 -25 -45 -8 -16 -33 -61 -55 -100 -23 -38 -48
-83 -56 -100 -8 -16 -26 -48 -39 -70 -13 -22 -31 -53 -40 -70 -8 -16 -26 -48
-39 -70 -13 -22 -38 -67 -56 -100 -18 -33 -43 -78 -56 -100 -13 -22 -30 -53
-39 -70 -8 -16 -26 -48 -40 -70 -13 -22 -27 -47 -30 -55 -4 -8 -11 -22 -16
-30 -5 -8 -16 -28 -25 -45 -8 -16 -26 -48 -39 -70 -13 -22 -31 -53 -40 -70 -8
-16 -26 -48 -40 -70 -13 -22 -27 -46 -30 -52 -3 -7 -7 -19 -10 -25 -3 -7 -17
-31 -30 -53 -14 -22 -32 -53 -41 -70 -8 -16 -26 -48 -39 -70 -13 -22 -31 -53
-39 -70 -16 -30 -22 -42 -45 -80 -6 -11 -18 -33 -27 -50 -8 -16 -26 -48 -40
-70 -13 -22 -31 -53 -39 -70 -9 -16 -27 -48 -40 -70 -13 -22 -27 -47 -30 -55
-4 -8 -11 -22 -16 -30 -5 -8 -16 -28 -25 -45 -8 -16 -26 -48 -40 -70 -13 -22
-31 -53 -39 -70 -9 -16 -27 -48 -40 -70 -13 -22 -27 -47 -30 -55 -4 -8 -11
-22 -16 -30 -5 -8 -16 -28 -25 -45 -8 -16 -26 -48 -40 -70 -13 -22 -31 -53
-39 -70 -9 -16 -27 -48 -40 -70 -13 -22 -27 -47 -30 -55 -4 -8 -11 -22 -16
-30 -5 -8 -16 -28 -25 -45 -8 -16 -26 -48 -40 -70 -13 -22 -31 -54 -39 -72 -8
-17 -19 -34 -25 -38 -5 -3 -10 -15 -10 -26 0 -18 10 -19 299 -19 l298 0 32 62
c33 66 41 80 59 113 6 11 37 70 67 130 31 61 92 178 135 260 44 83 84 161 90
175 5 14 14 32 20 40 5 8 16 29 23 45 32 71 -57 65 1008 65 643 0 967 -3 980
-10 10 -6 26 -25 34 -43 8 -18 33 -63 55 -102 22 -38 47 -83 55 -100 9 -16 36
-66 60 -110 24 -44 51 -93 60 -110 8 -16 33 -61 55 -100 22 -38 47 -83 55
-100 28 -55 76 -140 101 -178 l24 -37 293 0 c162 0 296 3 300 6 3 4 -2 18 -11
33 -28 41 -41 64 -58 96 -8 17 -26 48 -39 70 -13 22 -31 54 -39 71 -7 17 -19
35 -25 38 -6 4 -11 15 -11 25 0 10 -9 26 -20 36 -11 10 -20 26 -20 36 0 10 -5
21 -11 25 -6 3 -18 21 -26 38 -8 17 -25 49 -38 71 -13 22 -31 54 -40 70 -8 17
-26 48 -39 70 -13 22 -38 67 -56 100 -18 33 -43 78 -56 100 -13 22 -30 54 -39
70 -8 17 -26 48 -39 70 -13 22 -38 67 -56 100 -18 33 -43 78 -56 100 -13 22
-30 54 -39 70 -8 17 -26 48 -39 70 -13 22 -38 67 -56 100 -18 33 -43 78 -56
100 -13 22 -30 54 -39 70 -8 17 -26 48 -39 70 -14 22 -32 54 -40 70 -9 17 -34
62 -56 100 -22 39 -47 84 -55 100 -9 17 -27 48 -40 70 -13 22 -31 54 -39 70
-9 17 -27 48 -40 70 -13 22 -38 67 -56 100 -18 33 -43 78 -56 100 -13 22 -30
54 -39 70 -8 17 -26 48 -39 70 -14 22 -32 54 -40 70 -8 17 -33 62 -55 100 -22
39 -47 84 -56 100 -8 17 -26 48 -40 70 -13 22 -28 49 -33 60 -6 12 -33 60 -61
107 -28 48 -51 91 -51 97 0 5 -12 19 -26 30 -26 20 -39 21 -300 21 l-274 0
-15 -32z m313 -418 c21 -71 44 -124 85 -201 74 -139 121 -227 174 -327 28 -53
63 -117 77 -142 13 -25 41 -76 61 -115 19 -38 40 -78 45 -87 6 -10 14 -26 20
-35 5 -10 26 -49 45 -88 20 -38 47 -88 60 -110 13 -22 27 -47 30 -55 20 -48
83 -165 108 -200 9 -13 17 -30 17 -38 0 -7 10 -26 21 -42 47 -63 89 -60 -765
-60 -551 0 -777 3 -782 11 -3 6 3 24 15 40 11 15 21 35 21 43 0 8 4 18 10 21
5 3 26 38 46 78 19 40 55 108 79 152 24 44 47 87 50 95 4 8 11 22 16 30 5 8
17 32 26 53 9 20 19 37 23 37 5 0 11 12 15 27 4 16 11 34 17 41 6 7 27 45 48
85 88 170 144 277 185 352 36 66 100 194 191 378 8 16 14 35 14 42 0 8 5 26
10 41 12 32 24 24 38 -26z"/>
</g>
</svg>
